<svg xmlns="http://www.w3.org/2000/svg" width="340" height="73" viewBox="0 0 340 73" fill="none"><g clip-path="url(#clip0_5169_1050)"><path fill-rule="evenodd" clip-rule="evenodd" d="M2.76808 53.0774C2.40791 52.6954 2.08049 52.2497 1.78581 51.7404C1.52387 51.2629 1.32742 50.7536 1.19645 50.2124C1.06548 49.6713 1 49.1301 1 48.589V26.5289C1 25.9878 1.06548 25.4466 1.19645 24.9055C1.32742 24.3643 1.52387 23.855 1.78581 23.3775C2.08049 22.9 2.40791 22.4544 2.76808 22.0405C3.16098 21.6267 3.58663 21.2606 4.04502 20.9423C7.48295 18.6981 14.4079 14.2097 20.4488 10.2465C32.236 2.55896 32.236 2.55896 32.8745 2.55896H32.9727C33.513 2.55896 33.9059 2.84545 45.251 10.2465C51.2919 14.2097 58.2169 18.6981 61.6548 20.9423C62.1132 21.2606 62.5389 21.6267 62.9318 22.0405C63.3247 22.4544 63.6521 22.9 63.9141 23.3775C64.176 23.855 64.3724 24.3643 64.5034 24.9055C64.6344 25.4466 64.6999 25.9878 64.6999 26.5289V48.589C64.6999 49.1301 64.6344 49.6713 64.5034 50.2124C64.3724 50.7536 64.176 51.2629 63.9141 51.7404C63.6521 52.2497 63.3247 52.6954 62.9318 53.0774C62.5389 53.4912 62.1132 53.8573 61.6548 54.1756C58.2169 56.4198 51.2919 60.9082 45.251 64.8714C33.4638 72.559 33.4638 72.559 32.8254 72.559C32.236 72.559 32.236 72.559 20.4488 64.8714C14.4079 60.9082 7.48295 56.4198 4.04502 54.1756C3.58663 53.8573 3.16098 53.4912 2.76808 53.0774ZM7.77763 23.1865L10.8226 25.3352C13.8677 23.3298 17.2565 21.1333 20.4488 19.0324C32.236 11.3448 32.236 11.3448 32.8745 11.3448H32.9727C33.513 11.3448 33.9059 11.6313 45.251 19.0324C48.4434 21.1333 51.8813 23.3775 54.8772 25.3352L58.0205 23.2343C47.0682 16.1197 36.2142 9.00507 32.8745 6.80862C29.4857 9.00507 18.6808 16.0719 7.77763 23.1865ZM44.5634 32.1156C37.5894 27.5794 34.2988 25.4307 32.8745 24.4757C31.4011 25.4307 28.1105 27.5317 21.1364 32.1156L24.6235 34.3598C32.236 29.4416 32.2851 29.3939 32.8745 29.4416H32.9727C33.4147 29.4416 33.8076 29.6326 41.0764 34.3598L44.5634 32.1156ZM4.97817 29.3939C4.97817 29.6485 5.01091 29.8873 5.0764 30.1101C5.14188 30.3329 5.22374 30.5399 5.32196 30.7309C5.45293 30.9537 5.60027 31.1447 5.76398 31.3038C5.92769 31.4948 6.10778 31.654 6.30423 31.7813C24.1323 43.4321 30.6644 47.6817 32.8745 49.1142C35.0846 47.6817 41.6166 43.4321 59.4447 31.7813C59.6412 31.654 59.8213 31.4948 59.985 31.3038C60.1487 31.1447 60.2797 30.9537 60.3779 30.7309C60.5089 30.5399 60.6071 30.3329 60.6726 30.1101C60.7053 29.8873 60.7217 29.6485 60.7217 29.3939V26.5767C60.7217 26.5449 60.7217 26.513 60.7217 26.4812C60.7217 26.4494 60.7217 26.4175 60.7217 26.3857C60.7217 26.3857 60.7217 26.3698 60.7217 26.3379C60.7217 26.3061 60.7217 26.2743 60.7217 26.2425C57.0382 28.6299 50.8008 32.7363 45.251 36.3652C33.513 44.0528 33.513 44.0051 32.8254 44.0051C32.2851 44.0528 32.236 44.0528 20.4488 36.3652C14.9482 32.7363 8.71078 28.6299 5.02728 26.2425C5.02728 26.2743 5.02728 26.3061 5.02728 26.3379C5.02728 26.3698 5.02728 26.3857 5.02728 26.3857C5.02728 26.4175 5.02728 26.4494 5.02728 26.4812C4.99454 26.513 4.97817 26.5449 4.97817 26.5767V27.7704V29.3939ZM51.3411 27.6749C39.5539 19.9873 34.7408 16.7882 32.8745 15.5944C31.0082 16.7882 26.1951 19.9396 14.4079 27.6749L17.6003 29.7759L20.4488 27.8659C32.236 20.1783 32.236 20.1783 32.9236 20.2261H32.9727C33.513 20.2261 33.955 20.4648 45.251 27.8659L48.1487 29.7759L51.3411 27.6749ZM32.8745 33.6435C32.0396 34.2165 30.5662 35.1238 28.2087 36.6995C30.2715 38.0364 31.8922 39.0869 32.8745 39.7077C33.8076 39.0869 35.4284 38.0364 37.4911 36.6995C35.1337 35.1238 33.6603 34.2165 32.8745 33.6435ZM4.97817 39.2302C4.97817 39.453 5.01091 39.6758 5.0764 39.8987C5.14188 40.1215 5.22374 40.3443 5.32196 40.5671C5.42019 40.7581 5.55116 40.9491 5.71487 41.1401C5.87858 41.2993 6.05866 41.4425 6.25512 41.5699C17.6494 49.0187 29.3383 56.6585 32.8745 58.9505C36.3615 56.6585 48.0505 49.0187 59.4447 41.5699C59.6412 41.4425 59.8213 41.2993 59.985 41.1401C60.1487 40.9491 60.2797 40.7581 60.3779 40.5671C60.4761 40.3443 60.558 40.1215 60.6235 39.8987C60.6889 39.6758 60.7217 39.453 60.7217 39.2302V35.5535C57.0873 37.9409 50.8008 42.0474 45.251 45.6763C33.4638 53.3639 33.4638 53.3639 32.8254 53.3639C32.236 53.3639 32.236 53.3639 20.4488 45.6763C14.899 42.0474 8.61255 37.9409 4.97817 35.5535V39.2302ZM4.97817 48.589C4.97817 48.8436 5.01091 49.0824 5.0764 49.3052C5.14188 49.528 5.22374 49.7349 5.32196 49.9259C5.42019 50.1488 5.55116 50.3398 5.71487 50.4989C5.87858 50.6899 6.05866 50.8491 6.25512 50.9764C24.0832 62.6272 30.6153 66.8768 32.8745 68.3093C35.0846 66.8768 41.6166 62.6272 59.4447 50.9764C59.6412 50.8491 59.8213 50.6899 59.985 50.4989C60.1487 50.3398 60.2797 50.1488 60.3779 49.9259C60.4761 49.7349 60.558 49.528 60.6235 49.3052C60.6889 49.0824 60.7217 48.8436 60.7217 48.589V45.4375C57.0873 47.825 50.8008 51.8837 45.251 55.5126C33.4638 63.2002 33.4638 63.2002 32.8254 63.2002C32.236 63.2002 32.236 63.2479 20.4488 55.5126C14.899 51.8837 8.61255 47.825 4.97817 45.4375V48.589Z" fill="#F7A800"></path><path d="M111.545 57.559L108.322 48.4476H90.2168L86.9941 57.559H79.1719L94.6406 15.5765H103.898L119.338 57.559H111.545ZM92.502 42.0023H106.037L99.2695 22.8715L92.502 42.0023ZM136.2 58.1156C131.649 58.1156 127.919 56.6898 125.009 53.8383C122.098 50.9867 120.643 47.266 120.643 42.6761C120.643 38.0863 122.098 34.3754 125.009 31.5433C127.919 28.7113 131.649 27.2953 136.2 27.2953C139.852 27.2953 142.948 28.223 145.487 30.0785C148.026 31.9144 149.677 34.5023 150.438 37.8422L143.671 38.6625C143.143 36.8461 142.216 35.4691 140.888 34.5316C139.579 33.5941 137.997 33.1254 136.141 33.1254C133.72 33.1254 131.747 34.0043 130.223 35.7621C128.7 37.5199 127.938 39.8246 127.938 42.6761C127.938 45.5472 128.7 47.8617 130.223 49.6195C131.747 51.3578 133.72 52.2269 136.141 52.2269C137.997 52.2269 139.579 51.7582 140.888 50.8207C142.216 49.8832 143.143 48.5062 143.671 46.6898L150.438 47.5101C149.677 50.85 148.007 53.4574 145.429 55.3324C142.87 57.1879 139.794 58.1156 136.2 58.1156ZM168.209 58.1156C163.658 58.1156 159.927 56.6898 157.017 53.8383C154.107 50.9867 152.652 47.266 152.652 42.6761C152.652 38.0863 154.107 34.3754 157.017 31.5433C159.927 28.7113 163.658 27.2953 168.209 27.2953C171.861 27.2953 174.957 28.223 177.496 30.0785C180.035 31.9144 181.685 34.5023 182.447 37.8422L175.679 38.6625C175.152 36.8461 174.224 35.4691 172.896 34.5316C171.588 33.5941 170.005 33.1254 168.15 33.1254C165.728 33.1254 163.755 34.0043 162.232 35.7621C160.709 37.5199 159.947 39.8246 159.947 42.6761C159.947 45.5472 160.709 47.8617 162.232 49.6195C163.755 51.3578 165.728 52.2269 168.15 52.2269C170.005 52.2269 171.588 51.7582 172.896 50.8207C174.224 49.8832 175.152 48.5062 175.679 46.6898L182.447 47.5101C181.685 50.85 180.015 53.4574 177.437 55.3324C174.879 57.1879 171.802 58.1156 168.209 58.1156ZM211.995 53.9847C209.045 56.7582 205.237 58.1449 200.569 58.1449C195.901 58.1449 192.092 56.7582 189.143 53.9847C186.194 51.1918 184.719 47.4222 184.719 42.6761C184.719 37.9691 186.184 34.2289 189.114 31.4554C192.063 28.682 195.881 27.2953 200.569 27.2953C205.256 27.2953 209.065 28.682 211.995 31.4554C214.944 34.2289 216.418 37.9691 216.418 42.6761C216.418 47.4222 214.944 51.1918 211.995 53.9847ZM200.481 52.2562C203.039 52.2562 205.12 51.3773 206.721 49.6195C208.342 47.8617 209.153 45.5472 209.153 42.6761C209.153 39.8246 208.342 37.5199 206.721 35.7621C205.12 34.0043 203.039 33.1254 200.481 33.1254C198 33.1254 195.959 34.0043 194.358 35.7621C192.776 37.5199 191.985 39.8246 191.985 42.6761C191.985 45.5472 192.776 47.8617 194.358 49.6195C195.959 51.3773 198 52.2562 200.481 52.2562ZM240.722 27.8812H248.046V57.559H241.103L240.898 53.8969C239.902 55.264 238.603 56.3187 237.001 57.0609C235.419 57.7836 233.632 58.1449 231.64 58.1449C228.222 58.1449 225.566 57.2562 223.671 55.4789C221.796 53.682 220.859 51.1429 220.859 47.8617V27.8812H228.183V46.2797C228.183 48.2914 228.71 49.7855 229.765 50.7621C230.839 51.7191 232.216 52.1976 233.896 52.1976C235.888 52.1976 237.519 51.5922 238.788 50.3812C240.058 49.1703 240.702 47.2758 240.722 44.6976V27.8812ZM271.91 27.2953C275.309 27.2953 277.955 28.1937 279.85 29.9906C281.744 31.7679 282.691 34.2972 282.691 37.5785V57.559H275.367V39.1605C275.367 37.1293 274.83 35.6351 273.756 34.6781C272.701 33.7211 271.344 33.2426 269.684 33.2426C267.691 33.2426 266.051 33.848 264.762 35.059C263.492 36.2699 262.848 38.1644 262.828 40.7426V57.559H255.504V27.8812H262.828V31.309C264.957 28.6332 267.984 27.2953 271.91 27.2953ZM300.169 57.559C297.415 57.559 295.276 56.7875 293.753 55.2445C292.229 53.682 291.468 51.4945 291.468 48.682V33.5355H285.579V27.8812H287.571C289.192 27.8812 290.374 27.4906 291.116 26.7094C291.858 25.9281 292.229 24.5511 292.229 22.5785V18.2133H298.88V27.8812H305.208V33.5355H298.88V47.891C298.88 49.2386 299.202 50.2543 299.846 50.9379C300.491 51.6019 301.389 51.934 302.542 51.934H305.208V57.559H300.169ZM334.873 53.9847C331.923 56.7582 328.115 58.1449 323.447 58.1449C318.779 58.1449 314.97 56.7582 312.021 53.9847C309.072 51.1918 307.597 47.4222 307.597 42.6761C307.597 37.9691 309.062 34.2289 311.992 31.4554C314.941 28.682 318.759 27.2953 323.447 27.2953C328.134 27.2953 331.943 28.682 334.873 31.4554C337.822 34.2289 339.296 37.9691 339.296 42.6761C339.296 47.4222 337.822 51.1918 334.873 53.9847ZM323.359 52.2562C325.918 52.2562 327.998 51.3773 329.599 49.6195C331.22 47.8617 332.031 45.5472 332.031 42.6761C332.031 39.8246 331.22 37.5199 329.599 35.7621C327.998 34.0043 325.918 33.1254 323.359 33.1254C320.879 33.1254 318.837 34.0043 317.236 35.7621C315.654 37.5199 314.863 39.8246 314.863 42.6761C314.863 45.5472 315.654 47.8617 317.236 49.6195C318.837 51.3773 320.879 52.2562 323.359 52.2562Z" fill="#183339"></path></g><defs><clipPath id="clip0_5169_1050"><rect width="340" height="72" fill="white" transform="translate(0 0.829346)"></rect></clipPath></defs></svg>